<?xml version="1.0" standalone="no"?>
<!DOCTYPE svg PUBLIC "-//W3C//DTD SVG 20010904//EN"
 "http://www.w3.org/TR/2001/REC-SVG-20010904/DTD/svg10.dtd">
<svg version="1.0" xmlns="http://www.w3.org/2000/svg"
 width="519.000000pt" height="551.000000pt" viewBox="0 0 519.000000 551.000000"
 preserveAspectRatio="xMidYMid meet">
<metadata>
Created by potrace 1.16, written by Peter Selinger 2001-2019
</metadata>
<g transform="translate(0.000000,551.000000) scale(0.100000,-0.100000)"
fill="#000000" stroke="none">
<path d="M2562 5303 c0 -16 4 -36 9 -45 6 -10 5 -19 -1 -23 -18 -11 -191 -8
-203 4 -14 14 -107 15 -107 1 0 -5 8 -10 18 -10 9 0 30 -7 46 -15 15 -8 35
-15 44 -15 22 0 43 -32 30 -47 -6 -7 -17 -13 -24 -13 -8 0 -14 -4 -14 -10 0
-5 -9 -10 -20 -10 -11 0 -25 -9 -32 -20 -7 -11 -18 -20 -25 -20 -7 0 -13 -5
-13 -11 0 -5 -5 -7 -10 -4 -8 5 -7 11 1 21 7 9 8 14 3 13 -26 -5 -36 1 -25 15
9 10 6 17 -13 30 -14 9 -32 16 -40 16 -8 0 -17 6 -19 13 -3 7 -6 4 -6 -6 -1
-11 8 -21 19 -24 32 -8 17 -28 -17 -25 -21 2 -34 -2 -41 -14 -7 -12 -18 -15
-43 -12 -37 6 -83 -17 -76 -36 8 -20 -144 -14 -176 7 -14 9 -30 17 -34 17 -4
0 -1 -4 7 -10 12 -8 12 -10 -4 -16 -12 -5 -22 -2 -28 9 -11 20 -34 22 -41 5
-4 -10 -6 -10 -6 0 -1 10 -4 10 -15 0 -8 -7 -12 -17 -9 -21 3 -5 -4 -4 -15 2
-11 6 -28 8 -37 5 -14 -6 -14 -8 2 -20 17 -12 16 -13 -8 -12 -17 2 -25 7 -22
15 3 7 -2 13 -11 13 -9 0 -19 7 -22 15 -4 9 -19 15 -38 15 -30 -1 -30 -1 -11
-17 20 -15 20 -15 -4 -10 -13 3 -33 1 -43 -4 -14 -7 -24 -7 -34 2 -16 13 -116
7 -121 -8 -2 -6 -15 -8 -28 -5 -14 2 -36 -3 -50 -12 -13 -9 -35 -16 -49 -16
-13 0 -31 -6 -38 -12 -7 -7 -25 -19 -40 -25 -77 -35 -77 -35 -145 -93 -7 -6
-24 -15 -38 -20 -14 -5 -25 -14 -25 -20 0 -5 -9 -10 -20 -10 -13 0 -24 -10
-30 -25 -5 -14 -17 -28 -25 -31 -8 -4 -15 -10 -15 -15 0 -6 -13 -23 -29 -38
-24 -24 -32 -42 -39 -94 -4 -36 -7 -81 -6 -99 1 -18 5 -100 9 -183 5 -112 12
-165 27 -207 11 -32 25 -58 29 -58 5 0 9 -31 9 -68 l0 -68 50 -47 c28 -26 55
-47 60 -47 6 0 27 -16 47 -36 21 -19 50 -38 66 -41 15 -3 27 -9 27 -14 0 -5 8
-9 18 -9 9 0 34 -9 54 -20 21 -11 45 -17 54 -13 11 4 15 3 10 -5 -9 -15 16
-20 101 -20 98 0 113 -6 104 -40 -7 -26 -9 -27 -94 -30 -80 -3 -86 -4 -89 -25
-2 -14 -11 -23 -25 -25 -20 -3 -23 -9 -23 -48 0 -24 5 -44 10 -44 14 0 12 -67
-4 -196 -8 -60 -18 -167 -22 -239 -4 -77 -11 -133 -18 -137 -14 -9 -10 -441 4
-446 6 -2 10 -19 10 -39 0 -20 9 -48 22 -66 22 -31 29 -73 47 -292 4 -55 13
-110 19 -122 7 -12 12 -55 12 -95 0 -77 15 -148 30 -148 6 0 10 -6 10 -13 0
-8 9 -22 20 -32 11 -10 20 -24 20 -31 0 -7 7 -20 16 -28 8 -9 20 -44 25 -78 6
-35 14 -64 20 -66 5 -2 9 -15 9 -28 0 -14 7 -27 18 -31 9 -4 22 -12 28 -17 6
-6 23 -20 37 -31 15 -11 27 -23 27 -28 0 -4 16 -33 35 -63 19 -30 35 -57 35
-59 0 -15 55 -125 62 -125 4 0 8 -7 8 -15 0 -21 51 -125 61 -125 5 0 9 -8 9
-18 0 -10 8 -27 19 -38 10 -11 22 -30 25 -42 4 -12 12 -22 17 -22 5 0 23 -14
39 -30 16 -17 34 -30 40 -30 5 0 10 -4 10 -8 0 -5 14 -22 31 -38 17 -16 40
-39 52 -51 11 -13 28 -23 38 -23 9 0 19 -6 22 -14 5 -14 43 -22 237 -51 115
-17 553 -25 627 -11 38 7 42 11 45 39 3 30 6 32 61 43 58 12 101 29 124 50 6
6 30 14 52 18 25 4 46 14 53 26 7 11 19 20 26 20 8 0 26 8 40 18 15 10 55 31
90 47 34 16 62 34 62 42 0 7 7 13 14 13 15 0 66 42 66 54 0 4 13 21 30 39 16
18 30 35 30 39 0 4 16 24 35 44 19 19 35 39 35 42 0 4 14 23 30 42 16 19 33
50 36 68 4 18 10 35 15 38 5 3 9 18 9 35 0 16 4 29 8 29 4 0 14 21 21 47 8 27
18 53 23 60 5 6 16 56 23 110 19 131 32 190 50 226 8 17 15 36 15 44 0 7 5 13
10 13 6 0 10 23 10 50 0 28 5 50 10 50 6 0 10 14 10 30 0 17 -4 30 -10 30 -15
0 -13 187 3 192 8 3 14 45 19 139 7 144 16 209 28 209 4 0 10 51 14 113 3 61
10 144 15 182 13 92 13 384 1 460 -6 37 -16 65 -27 72 -41 29 -63 57 -63 79 0
13 -4 24 -10 24 -6 0 -10 33 -10 80 0 78 -1 80 -25 80 -13 0 -28 7 -33 16 -7
13 -18 15 -48 11 -21 -3 -72 -11 -113 -17 -54 -8 -77 -8 -87 1 -17 14 -18 41
-2 57 15 15 9 15 -87 -4 -83 -16 -407 -25 -420 -12 -5 4 -2 16 6 25 11 15 11
16 -1 6 -8 -7 -21 -13 -30 -13 -12 0 -12 2 -2 9 10 6 6 10 -15 14 -17 3 -37 0
-51 -9 -13 -9 -29 -13 -35 -10 -7 2 -4 5 6 5 9 1 17 8 17 16 0 21 -12 19 -38
-5 -18 -17 -22 -18 -22 -5 0 9 16 23 36 31 30 13 42 13 66 3 24 -10 35 -9 66
5 34 15 41 16 66 2 34 -17 70 -2 63 26 -3 10 7 27 24 42 28 25 29 25 29 5 0
-12 5 -19 13 -16 6 2 11 14 9 26 -3 19 0 22 17 16 20 -6 19 -4 -4 21 -14 15
-25 31 -25 36 0 5 -5 6 -11 3 -6 -4 -5 2 3 14 7 12 21 21 31 21 10 0 15 -5 12
-10 -4 -6 -11 -8 -16 -5 -5 4 -9 -1 -9 -9 0 -37 49 0 50 37 0 9 5 17 11 17 5
0 8 -4 4 -9 -3 -6 3 -15 12 -21 17 -11 17 -11 0 -6 -11 3 -15 2 -12 -4 3 -6
11 -10 17 -10 6 0 20 -7 30 -17 21 -19 37 -10 19 11 -9 11 -8 15 5 20 9 4 19
4 22 1 3 -3 0 -5 -6 -5 -7 0 -12 -5 -12 -11 0 -7 9 -9 23 -6 31 8 51 -6 45
-34 -4 -21 -1 -24 28 -24 18 0 36 3 40 8 4 4 2 7 -4 7 -7 0 -12 4 -12 9 0 7
22 8 69 3 8 -1 11 -8 6 -19 -5 -14 -3 -15 6 -6 17 17 3 31 -36 39 -35 6 -44
17 -25 29 5 3 7 13 4 23 -5 15 -3 14 10 -2 9 -11 22 -16 31 -12 13 5 15 1 10
-17 -5 -17 -4 -19 4 -7 6 8 11 11 11 6 0 -5 6 -3 14 4 8 6 12 18 9 26 -4 10 3
14 25 14 17 0 32 -6 35 -12 3 -9 11 -6 26 10 22 23 37 30 26 12 -3 -5 0 -10 9
-10 8 0 16 -6 19 -12 4 -10 7 -10 18 0 7 6 20 12 29 12 13 0 13 -1 0 -10 -12
-8 -9 -10 13 -10 15 0 27 5 27 10 0 6 -4 10 -8 10 -15 0 -9 34 7 47 14 11 14
12 1 13 -11 0 -10 3 4 11 10 6 21 7 25 3 9 -13 51 -17 51 -5 0 6 12 8 30 5 23
-5 30 -3 30 9 0 8 6 18 13 20 9 4 9 6 -1 6 -7 1 -20 8 -28 16 -14 13 -14 17 0
30 8 8 19 15 24 15 5 0 9 7 9 15 0 8 -4 15 -8 15 -5 0 -13 9 -19 20 -7 14 -7
20 0 20 5 0 10 -7 10 -15 0 -29 15 -15 16 15 1 24 -4 32 -23 36 -13 4 -27 4
-30 0 -4 -3 1 -6 10 -6 10 0 17 -4 17 -10 0 -5 -16 -10 -35 -10 -39 0 -42 14
-11 43 19 17 19 17 -2 17 -12 0 -22 5 -22 10 0 6 9 10 20 10 11 0 20 5 20 10
0 6 -9 10 -21 10 -24 0 -16 18 15 30 19 8 19 9 -6 9 -25 1 -42 21 -18 21 6 0
10 12 10 26 0 22 -3 24 -22 18 -21 -6 -21 -6 -5 10 9 10 17 21 17 26 0 5 7 7
15 4 8 -4 15 -1 15 5 0 6 -4 11 -10 11 -5 0 -10 6 -10 14 0 8 -15 17 -35 20
-19 4 -40 13 -48 20 -7 8 -22 16 -33 19 -14 3 -12 5 9 6 15 0 27 6 27 11 0 6
9 10 19 10 11 0 21 5 23 11 5 15 54 -8 63 -30 8 -23 36 -71 61 -106 12 -16 25
-40 28 -52 4 -13 11 -23 15 -23 21 0 77 -279 69 -339 -3 -22 1 -25 32 -25 30
-1 35 2 32 19 -1 12 4 40 12 63 9 23 13 48 10 56 -6 16 21 46 42 46 19 0 18
10 -3 26 -17 13 -17 14 5 20 13 4 22 14 22 25 0 11 7 19 15 19 8 0 15 9 15 19
0 10 7 21 15 25 21 8 19 54 -5 101 -11 22 -20 45 -20 52 0 7 -4 13 -10 13 -5
0 -10 17 -10 38 0 21 -9 57 -20 80 -11 22 -20 46 -20 52 0 12 -17 13 -25 1 -3
-5 2 -16 10 -24 8 -9 15 -28 15 -44 -1 -27 -1 -27 -15 -8 -8 11 -19 25 -24 31
-5 7 -13 28 -16 48 -4 21 -13 36 -21 36 -12 0 -19 14 -11 23 1 2 -6 11 -15 21
-17 16 -19 16 -40 -3 -12 -12 -25 -21 -30 -21 -4 0 -8 -4 -8 -10 0 -5 7 -10
15 -10 8 0 15 -4 15 -10 0 -5 9 -10 21 -10 15 0 19 -5 15 -16 -3 -8 -2 -12 4
-9 6 3 16 3 22 -1 9 -6 5 -10 -12 -14 -24 -6 -23 -6 11 -28 l34 -23 -33 5
c-33 4 -33 4 -16 -15 9 -10 23 -19 31 -19 20 0 -3 -21 -40 -38 -35 -15 -40
-15 -31 0 4 6 -1 17 -11 25 -11 7 -13 13 -7 13 7 0 12 5 12 10 0 6 -6 10 -14
10 -8 0 -18 5 -22 11 -11 19 -15 181 -4 174 6 -4 8 -10 5 -15 -8 -13 9 -20 24
-10 9 5 11 14 6 26 -5 11 -9 26 -9 34 -1 17 -36 27 -36 11 0 -6 -5 -11 -11
-11 -6 0 -9 6 -6 14 6 16 -20 40 -54 49 -23 6 -23 5 -5 -8 18 -14 16 -15 -27
-15 -26 0 -47 3 -47 8 0 11 -51 32 -81 32 -28 0 -47 25 -26 34 7 2 0 5 -14 5
-18 1 -28 8 -32 22 -5 18 -9 19 -27 9 -26 -14 -50 -7 -50 15 0 18 -44 38 -78
36 -12 0 -25 6 -29 15 -3 8 -11 13 -19 10 -7 -3 -27 -1 -44 4 -26 7 -31 6 -26
-5 3 -8 1 -15 -5 -15 -5 0 -12 7 -15 15 -4 10 -13 13 -25 10 -11 -4 -19 -2
-19 4 0 6 -15 11 -32 11 -25 0 -29 3 -18 10 16 11 15 11 -49 14 -25 1 -48 8
-55 17 -11 16 -52 31 -91 34 -30 3 -49 9 -56 18 -4 5 -40 9 -80 9 -57 1 -67 3
-44 9 29 8 29 8 -7 6 -20 -2 -35 0 -32 4 8 14 -45 38 -75 34 -26 -3 -36 2 -53
26 -20 27 -27 29 -83 29 -62 0 -97 14 -101 42 -4 28 -38 58 -65 58 -22 0 -27
-4 -27 -27z m-662 -473 c16 0 30 6 32 12 3 9 9 8 22 -5 14 -13 36 -17 109 -18
51 0 117 -5 147 -10 76 -13 99 -12 118 7 15 15 17 15 26 -5 11 -24 -7 -23 256
-25 97 -1 181 -5 187 -9 7 -4 153 -7 325 -6 319 2 484 -9 543 -36 17 -7 43
-18 58 -24 24 -10 26 -13 15 -36 -13 -28 -23 -32 -32 -10 -3 8 2 19 12 24 10
6 12 11 4 11 -7 0 -23 -7 -36 -16 -18 -11 -23 -22 -20 -42 9 -62 8 -107 -1
-107 -5 0 -10 16 -11 35 0 35 -19 44 -36 17 -6 -9 -8 -9 -8 0 0 7 -10 15 -23
18 -16 4 -23 14 -25 33 -2 29 -18 50 -29 38 -4 -4 -1 -11 7 -16 13 -8 12 -10
-2 -10 -10 0 -18 -7 -18 -16 0 -8 -5 -12 -10 -9 -6 4 -8 11 -5 16 4 5 -3 9
-15 9 -14 0 -19 -4 -14 -12 6 -9 3 -9 -9 0 -9 8 -33 14 -54 13 -135 -1 -132
-1 -126 -17 6 -16 -12 -34 -32 -34 -5 0 -3 4 5 10 12 8 12 10 -3 16 -9 3 -24
1 -31 -5 -11 -10 -16 -8 -21 8 -5 16 -15 21 -41 21 -19 0 -34 4 -34 9 0 5 -12
11 -27 13 -14 2 -29 10 -31 18 -5 13 -3 13 11 1 10 -7 17 -9 17 -3 0 17 -28
22 -41 6 -8 -10 -15 -12 -23 -4 -5 5 -25 10 -44 10 -30 0 -33 -2 -22 -15 15
-18 40 -20 40 -3 0 9 3 9 12 0 7 -7 20 -12 30 -12 10 0 18 -4 18 -8 0 -4 -22
-8 -49 -7 -27 0 -47 3 -45 7 2 4 -1 10 -7 14 -13 8 -41 -24 -33 -37 3 -5 -2
-9 -10 -9 -11 0 -14 8 -11 28 3 27 1 29 -28 27 -18 -1 -35 3 -40 9 -5 8 -11 7
-20 -4 -16 -20 -77 -26 -77 -8 0 10 -3 9 -10 -2 -8 -13 -10 -13 -10 2 0 12
-13 18 -50 23 -27 4 -50 11 -50 17 0 5 10 7 23 4 12 -3 16 -3 9 0 -6 3 -10 10
-7 15 4 5 -1 6 -9 3 -8 -3 -23 -1 -33 5 -13 6 -24 6 -34 0 -11 -8 -11 -12 -1
-16 6 -2 12 -13 12 -24 0 -13 -7 -19 -22 -18 -13 0 -17 3 -10 6 15 6 16 23 0
23 -6 0 -19 7 -29 16 -20 18 -21 3 -1 -33 18 -32 15 -38 -9 -17 -15 13 -22 15
-28 6 -5 -8 -14 -3 -29 18 -13 17 -17 30 -11 30 7 0 18 -8 25 -17 11 -15 13
-15 14 -3 0 38 -121 67 -144 34 -15 -20 -129 -20 -189 0 -65 22 -232 41 -274
31 -31 -7 -19 -35 16 -36 24 -2 24 -2 3 -6 -29 -6 -70 26 -50 38 25 16 -6 31
-37 19 -15 -6 -36 -8 -46 -5 -10 4 -24 3 -31 -2 -7 -4 -44 -8 -83 -9 -135 -2
-319 -15 -325 -22 -6 -9 -50 -11 -50 -2 0 11 78 31 134 36 28 2 76 6 106 9 78
7 259 18 297 17 24 0 34 5 39 21 7 19 8 19 12 5 2 -12 13 -18 32 -18z m905
-424 c13 -9 31 -16 39 -16 9 0 36 -21 62 -46 45 -46 47 -46 84 -35 20 6 41 11
45 11 8 0 2 -50 -10 -87 -6 -20 -4 -23 19 -23 19 0 26 -5 26 -20 0 -11 -8 -24
-17 -27 -10 -4 -24 -15 -31 -25 -7 -10 -20 -18 -28 -18 -8 0 -14 -4 -14 -10 0
-5 9 -10 19 -10 38 0 30 -18 -17 -41 -47 -23 -122 -32 -375 -44 -43 -2 -85 -9
-93 -15 -18 -15 -165 -8 -209 10 -29 12 -30 12 -7 21 24 9 30 29 9 29 -20 0
-92 37 -107 54 -11 14 -8 16 21 16 l33 0 -31 28 c-27 24 -53 62 -53 76 0 3 17
6 39 6 34 0 41 4 54 33 22 45 96 117 121 117 12 1 32 7 46 15 14 8 28 14 33
15 11 0 9 -42 -4 -80 -9 -26 -9 -34 2 -41 15 -9 1 -11 -94 -13 -51 -1 -66 -22
-22 -31 14 -3 36 -7 50 -10 14 -3 25 -9 25 -14 0 -4 -11 -14 -25 -21 -24 -13
-35 -40 -16 -40 6 0 22 -11 37 -25 15 -14 31 -25 35 -25 5 0 9 -9 9 -20 0 -17
3 -19 19 -8 15 9 23 9 34 -1 11 -9 33 -10 79 -4 35 4 70 7 78 5 35 -5 110 10
110 23 0 8 7 15 16 17 14 3 13 6 -5 28 -11 14 -31 35 -43 48 -12 12 -17 22
-10 22 6 0 12 -4 12 -10 0 -5 7 -10 15 -10 8 0 15 -7 15 -15 0 -8 9 -19 19
-25 16 -8 23 -5 39 17 18 25 18 27 1 44 -9 9 -25 19 -35 21 -16 3 -13 8 16 37
l35 33 -68 -4 c-44 -2 -67 1 -67 8 0 6 -9 19 -19 28 -11 10 -24 32 -30 48
l-11 31 60 -6 c34 -3 72 -12 85 -21z m-490 -764 c0 -15 13 -17 97 -17 53 0 91
-3 85 -7 -7 -4 -73 -8 -147 -8 l-135 0 30 -25 c17 -13 42 -24 56 -25 30 0 48
-33 54 -97 2 -20 11 -43 19 -49 20 -14 21 -34 3 -34 -8 0 -20 -19 -26 -42 -7
-24 -21 -51 -31 -60 -10 -9 -21 -23 -24 -30 -5 -10 -7 -10 -12 0 -3 6 -10 10
-14 7 -5 -3 -25 10 -45 30 -20 19 -45 35 -56 35 -10 0 -19 4 -19 9 0 5 -13 11
-30 14 -16 4 -38 16 -47 27 -13 14 -30 20 -60 20 -25 0 -43 -5 -43 -11 0 -6
-7 -9 -15 -5 -8 3 -15 1 -15 -4 0 -15 -40 -12 -56 4 -11 11 -11 16 -1 19 6 3
0 6 -16 6 -21 1 -30 -5 -37 -24 -5 -14 -14 -25 -19 -25 -5 0 -13 -9 -16 -20
-7 -23 -45 -27 -45 -5 0 10 -6 12 -17 8 -17 -7 -17 -6 0 11 9 9 17 22 17 27 0
5 7 9 15 9 10 0 15 7 13 18 -2 11 4 18 20 20 12 2 22 7 22 11 0 15 54 71 69
71 15 1 81 53 81 65 0 3 -7 5 -15 5 -16 0 -19 9 -7 26 6 10 141 26 257 30 96
3 95 3 95 26 0 12 3 18 7 14 4 -4 8 -15 8 -24z m848 -64 c33 -33 34 -38 2 -38
-14 0 -25 -4 -25 -10 0 -5 -12 -10 -27 -10 -22 0 -25 -2 -13 -10 13 -8 12 -10
-2 -10 -10 0 -18 -4 -18 -10 0 -5 7 -10 16 -10 14 0 14 -1 0 -16 -9 -8 -16
-19 -16 -23 0 -11 -80 -41 -108 -41 -12 0 -27 -9 -34 -20 -7 -11 -23 -20 -35
-20 -12 0 -25 -5 -29 -11 -3 -6 -15 -9 -25 -6 -12 3 -19 0 -19 -9 0 -8 -2 -14
-5 -14 -14 0 -64 59 -70 83 -4 15 -11 27 -16 27 -13 0 -11 28 2 32 6 2 13 34
16 71 3 36 10 64 14 61 5 -3 9 0 9 6 0 8 51 10 178 8 l178 -3 27 -27z m-1528
-501 c29 -29 63 -57 76 -64 13 -6 45 -21 72 -33 32 -15 47 -28 47 -41 0 -10 5
-19 11 -19 5 0 7 -4 4 -10 -4 -6 6 -10 24 -10 55 0 81 -16 81 -50 0 -16 4 -30
8 -30 4 0 16 -13 25 -30 14 -22 26 -30 47 -30 16 0 32 5 35 10 3 6 19 10 35
10 26 0 31 5 46 55 10 30 21 55 26 55 4 0 8 18 8 39 0 22 4 42 8 45 5 3 6 -8
4 -25 -6 -41 18 -38 67 9 36 34 41 36 47 20 3 -10 11 -18 17 -18 7 0 18 -9 25
-21 12 -19 20 -21 100 -16 48 3 99 8 114 12 20 5 31 2 48 -15 23 -23 50 -21
50 4 0 9 7 12 20 9 12 -3 22 1 26 11 7 19 40 21 48 4 3 -8 5 -8 3 2 -2 14 68
90 83 90 4 0 15 -9 25 -20 10 -11 24 -20 32 -20 7 0 13 -6 13 -12 1 -25 27
-49 45 -42 16 6 16 8 1 16 -20 11 -21 38 -2 38 8 0 17 6 20 13 3 6 3 2 0 -11
-4 -17 2 -30 25 -51 28 -26 29 -29 13 -45 -13 -12 -14 -20 -6 -34 16 -25 54
-26 120 -2 33 12 78 26 101 32 23 5 47 16 54 24 6 8 18 14 25 14 8 0 14 5 14
10 0 6 9 10 20 10 11 0 20 4 20 10 0 19 96 107 140 127 55 26 151 37 143 16
-4 -9 4 -13 26 -13 17 0 31 -4 31 -10 0 -5 -6 -10 -12 -10 -9 0 -10 -3 -2 -8
6 -4 23 -26 38 -49 14 -24 31 -43 36 -43 6 0 10 -9 10 -20 0 -11 4 -28 9 -38
32 -62 34 -73 23 -84 -20 -20 -14 -38 13 -38 14 0 25 -4 25 -10 0 -5 -5 -10
-11 -10 -6 0 0 -15 14 -33 24 -31 25 -38 17 -98 -13 -98 -20 -128 -49 -208
-21 -61 -37 -85 -88 -136 -35 -35 -79 -70 -98 -80 -20 -9 -39 -23 -42 -31 -3
-8 -13 -14 -22 -14 -9 0 -41 -10 -71 -21 -68 -27 -100 -26 -151 7 -29 18 -47
40 -62 74 -26 59 -47 72 -47 30 0 -16 -4 -32 -10 -35 -5 -3 -10 -17 -10 -31 0
-13 -4 -24 -10 -24 -5 0 -10 -7 -10 -16 0 -24 -26 -44 -58 -44 -16 0 -43 -5
-60 -11 -26 -9 -38 -7 -79 13 -43 22 -49 29 -54 64 -6 42 -34 104 -48 104 -10
0 -21 101 -14 129 3 12 10 21 16 21 30 0 54 118 27 135 -5 3 -10 26 -10 50 0
25 -6 50 -15 59 -8 8 -15 18 -15 23 -1 4 -10 19 -21 33 -21 25 -23 25 -174 25
-113 0 -156 -3 -168 -14 -12 -9 -30 -11 -60 -7 -30 5 -52 2 -73 -9 -16 -8 -38
-15 -50 -15 -32 0 -54 -61 -56 -148 0 -41 4 -77 9 -80 6 -4 14 -18 18 -32 4
-14 15 -30 23 -36 9 -6 16 -28 16 -50 1 -30 7 -41 23 -49 38 -17 37 -71 -2
-81 -21 -5 -22 -8 -10 -31 25 -48 -21 -95 -61 -63 -11 10 -14 9 -14 -2 0 -8 5
-19 11 -25 19 -19 6 -57 -24 -71 -44 -21 -104 0 -161 56 -26 25 -49 55 -52 68
-3 12 -16 26 -30 33 -18 8 -24 19 -25 43 -2 28 -2 29 -6 8 -3 -14 -10 -31 -16
-38 -13 -17 -55 -7 -76 17 -9 10 -36 28 -61 42 -25 13 -47 26 -50 29 -3 3 -41
21 -85 39 -74 32 -137 63 -227 114 -20 11 -42 33 -49 50 -15 36 -63 67 -106
67 -32 0 -39 9 -34 48 1 6 -2 12 -7 12 -9 0 -13 16 -14 67 -1 24 -7 33 -25 38
-26 6 -30 20 -8 29 8 3 15 12 15 21 0 16 20 56 32 65 4 3 1 18 -7 33 -13 26
-13 27 28 37 23 6 50 13 59 16 9 3 31 18 49 35 17 16 34 29 38 29 3 0 14 14
23 31 10 16 31 34 47 40 16 6 31 19 34 30 8 30 25 23 82 -34z"/>
</g>
</svg>
